# Blender 4.2.0
# www.blender.org
mtllib model_sphere.mtl
o Icosphere
v 0.000000 -1.000000 0.000000
v 0.723607 -0.447220 0.525725
v -0.276388 -0.447220 0.850649
v -0.894426 -0.447216 0.000000
v -0.276388 -0.447220 -0.850649
v 0.723607 -0.447220 -0.525725
v 0.276388 0.447220 0.850649
v -0.723607 0.447220 0.525725
v -0.723607 0.447220 -0.525725
v 0.276388 0.447220 -0.850649
v 0.894426 0.447216 -0.000000
v 0.000000 1.000000 -0.000000
v -0.232822 -0.657519 0.716563
v -0.162456 -0.850654 0.499995
v -0.077607 -0.967950 0.238853
v 0.203181 -0.967950 0.147618
v 0.425323 -0.850654 0.309011
v 0.609547 -0.657519 0.442856
v 0.531941 -0.502302 0.681712
v 0.262869 -0.525738 0.809012
v -0.029639 -0.502302 0.864184
v 0.812729 -0.502301 -0.295238
v 0.850648 -0.525736 0.000000
v 0.812729 -0.502301 0.295238
v 0.203181 -0.967950 -0.147618
v 0.425323 -0.850654 -0.309011
v 0.609547 -0.657519 -0.442856
v -0.753442 -0.657515 0.000000
v -0.525730 -0.850652 0.000000
v -0.251147 -0.967949 0.000000
v -0.483971 -0.502302 0.716565
v -0.688189 -0.525736 0.499997
v -0.831051 -0.502299 0.238853
v -0.232822 -0.657519 -0.716563
v -0.162456 -0.850654 -0.499995
v -0.077607 -0.967950 -0.238853
v -0.831051 -0.502299 -0.238853
v -0.688189 -0.525736 -0.499997
v -0.483971 -0.502302 -0.716565
v -0.029639 -0.502302 -0.864184
v 0.262869 -0.525738 -0.809012
v 0.531941 -0.502302 -0.681712
v 0.956626 0.251149 0.147618
v 0.951058 0.000000 0.309013
v 0.860698 -0.251151 0.442858
v 0.860698 -0.251151 -0.442858
v 0.951058 -0.000000 -0.309013
v 0.956626 0.251149 -0.147618
v 0.155215 0.251152 0.955422
v 0.000000 0.000000 1.000000
v -0.155215 -0.251152 0.955422
v 0.687159 -0.251152 0.681715
v 0.587786 0.000000 0.809017
v 0.436007 0.251152 0.864188
v -0.860698 0.251151 0.442858
v -0.951058 0.000000 0.309013
v -0.956626 -0.251149 0.147618
v -0.436007 -0.251152 0.864188
v -0.587786 0.000000 0.809017
v -0.687159 0.251152 0.681715
v -0.687159 0.251152 -0.681715
v -0.587786 -0.000000 -0.809017
v -0.436007 -0.251152 -0.864188
v -0.956626 -0.251149 -0.147618
v -0.951058 -0.000000 -0.309013
v -0.860698 0.251151 -0.442858
v 0.436007 0.251152 -0.864188
v 0.587786 -0.000000 -0.809017
v 0.687159 -0.251152 -0.681715
v -0.155215 -0.251152 -0.955422
v 0.000000 -0.000000 -1.000000
v 0.155215 0.251152 -0.955422
v 0.831051 0.502299 0.238853
v 0.688189 0.525736 0.499997
v 0.483971 0.502302 0.716565
v 0.029639 0.502302 0.864184
v -0.262869 0.525738 0.809012
v -0.531941 0.502302 0.681712
v -0.812729 0.502301 0.295238
v -0.850648 0.525736 -0.000000
v -0.812729 0.502301 -0.295238
v -0.531941 0.502302 -0.681712
v -0.262869 0.525738 -0.809012
v 0.029639 0.502302 -0.864184
v 0.483971 0.502302 -0.716565
v 0.688189 0.525736 -0.499997
v 0.831051 0.502299 -0.238853
v 0.077607 0.967950 0.238853
v 0.162456 0.850654 0.499995
v 0.232822 0.657519 0.716563
v 0.753442 0.657515 -0.000000
v 0.525730 0.850652 -0.000000
v 0.251147 0.967949 -0.000000
v -0.203181 0.967950 0.147618
v -0.425323 0.850654 0.309011
v -0.609547 0.657519 0.442856
v -0.203181 0.967950 -0.147618
v -0.425323 0.850654 -0.309011
v -0.609547 0.657519 -0.442856
v 0.077607 0.967950 -0.238853
v 0.162456 0.850654 -0.499995
v 0.232822 0.657519 -0.716563
v 0.361800 0.894429 -0.262863
v 0.638194 0.723610 -0.262864
v 0.447209 0.723612 -0.525728
v -0.138197 0.894430 -0.425319
v -0.052790 0.723612 -0.688185
v -0.361804 0.723612 -0.587778
v -0.447210 0.894429 -0.000000
v -0.670817 0.723611 -0.162457
v -0.670817 0.723611 0.162457
v -0.138197 0.894430 0.425319
v -0.361804 0.723612 0.587778
v -0.052790 0.723612 0.688185
v 0.361800 0.894429 0.262863
v 0.447209 0.723612 0.525728
v 0.638194 0.723610 0.262864
v 0.861804 0.276396 -0.425322
v 0.809019 -0.000000 -0.587782
v 0.670821 0.276397 -0.688189
v -0.138199 0.276397 -0.951055
v -0.309016 -0.000000 -0.951057
v -0.447215 0.276397 -0.850649
v -0.947213 0.276396 -0.162458
v -1.000000 0.000001 -0.000000
v -0.947213 0.276397 0.162458
v -0.447216 0.276397 0.850648
v -0.309017 -0.000001 0.951056
v -0.138199 0.276397 0.951055
v 0.670820 0.276396 0.688190
v 0.809019 -0.000002 0.587783
v 0.861804 0.276394 0.425323
v 0.309017 -0.000000 -0.951056
v 0.447216 -0.276398 -0.850648
v 0.138199 -0.276398 -0.951055
v -0.809018 -0.000000 -0.587783
v -0.670819 -0.276397 -0.688191
v -0.861803 -0.276396 -0.425324
v -0.809018 0.000000 0.587783
v -0.861803 -0.276396 0.425324
v -0.670819 -0.276397 0.688191
v 0.309017 0.000000 0.951056
v 0.138199 -0.276398 0.951055
v 0.447216 -0.276398 0.850648
v 1.000000 0.000000 0.000000
v 0.947213 -0.276396 0.162458
v 0.947213 -0.276396 -0.162458
v 0.361803 -0.723612 -0.587779
v 0.138197 -0.894429 -0.425321
v 0.052789 -0.723611 -0.688186
v -0.447211 -0.723612 -0.525727
v -0.361801 -0.894429 -0.262863
v -0.638195 -0.723609 -0.262863
v -0.638195 -0.723609 0.262864
v -0.361801 -0.894428 0.262864
v -0.447211 -0.723610 0.525729
v 0.670817 -0.723611 -0.162457
v 0.670818 -0.723610 0.162458
v 0.447211 -0.894428 0.000001
v 0.052790 -0.723612 0.688185
v 0.138199 -0.894429 0.425321
v 0.361805 -0.723611 0.587779
vn -0.0000 -1.0000 -0.0000
vn 0.2110 -0.9654 0.1533
vn -0.0806 -0.9654 0.2480
vn 0.7236 -0.4472 0.5257
vn 0.6042 -0.6650 0.4390
vn 0.8152 -0.5038 0.2857
vn -0.2608 -0.9654 -0.0000
vn -0.0806 -0.9654 -0.2480
vn 0.2110 -0.9654 -0.1533
vn 0.8650 -0.2431 0.4390
vn -0.2764 -0.4472 0.8506
vn -0.0198 -0.5038 0.8636
vn -0.1502 -0.2431 0.9583
vn -0.8944 -0.4472 -0.0000
vn -0.8274 -0.5038 0.2480
vn -0.9578 -0.2431 0.1533
vn -0.2764 -0.4472 -0.8506
vn -0.4915 -0.5038 -0.7103
vn -0.4417 -0.2431 -0.8636
vn 0.7236 -0.4472 -0.5257
vn 0.5237 -0.5038 -0.6870
vn 0.6848 -0.2431 -0.6870
vn 0.6848 -0.2431 0.6870
vn -0.4417 -0.2431 0.8636
vn -0.9578 -0.2431 -0.1533
vn -0.1502 -0.2431 -0.9583
vn 0.8650 -0.2431 -0.4390
vn 0.2764 0.4472 0.8506
vn 0.4915 0.5038 0.7103
vn 0.2308 0.6650 0.7103
vn -0.7236 0.4472 0.5257
vn -0.5237 0.5038 0.6870
vn -0.6042 0.6650 0.4390
vn -0.7236 0.4472 -0.5257
vn -0.8152 0.5038 -0.2857
vn -0.6042 0.6650 -0.4390
vn 0.2764 0.4472 -0.8506
vn 0.0198 0.5038 -0.8636
vn 0.2308 0.6650 -0.7103
vn 0.8944 0.4472 -0.0000
vn 0.8274 0.5038 -0.2480
vn 0.7469 0.6650 -0.0000
vn 0.2608 0.9654 -0.0000
vn 0.0806 0.9654 -0.2480
vn -0.0000 1.0000 -0.0000
vn 0.5257 0.8507 -0.0000
vn 0.3682 0.8904 -0.2675
vn 0.6317 0.7275 -0.2675
vn 0.1625 0.8507 -0.5000
vn 0.4496 0.7276 -0.5182
vn 0.6882 0.5257 -0.5000
vn 0.4915 0.5038 -0.7103
vn -0.2110 0.9654 -0.1533
vn -0.1406 0.8904 -0.4329
vn -0.0592 0.7276 -0.6835
vn -0.4253 0.8507 -0.3090
vn -0.3539 0.7276 -0.5878
vn -0.2629 0.5257 -0.8090
vn -0.5237 0.5038 -0.6870
vn -0.2110 0.9654 0.1533
vn -0.4551 0.8904 -0.0000
vn -0.6683 0.7276 -0.1549
vn -0.4253 0.8507 0.3090
vn -0.6683 0.7276 0.1549
vn -0.8506 0.5257 -0.0000
vn -0.8152 0.5038 0.2857
vn 0.0806 0.9654 0.2480
vn -0.1406 0.8904 0.4329
vn -0.3539 0.7276 0.5878
vn 0.1625 0.8507 0.5000
vn -0.0592 0.7276 0.6835
vn -0.2629 0.5257 0.8090
vn 0.0198 0.5038 0.8636
vn 0.3682 0.8904 0.2675
vn 0.4496 0.7276 0.5182
vn 0.6317 0.7275 0.2675
vn 0.6882 0.5257 0.5000
vn 0.8274 0.5038 0.2480
vn 0.9578 0.2431 -0.1533
vn 0.9511 -0.0000 -0.3090
vn 0.8593 0.2724 -0.4329
vn 0.8090 0.0089 -0.5878
vn 0.6772 0.2724 -0.6835
vn 0.5878 -0.0000 -0.8090
vn 0.4417 0.2431 -0.8636
vn 0.1502 0.2431 -0.9583
vn -0.0000 -0.0000 -1.0000
vn -0.1461 0.2724 -0.9510
vn -0.3090 0.0089 -0.9510
vn -0.4408 0.2724 -0.8553
vn -0.5878 -0.0000 -0.8090
vn -0.6848 0.2431 -0.6870
vn -0.8650 0.2431 -0.4390
vn -0.9511 -0.0000 -0.3090
vn -0.9496 0.2724 -0.1549
vn -1.0000 0.0089 -0.0000
vn -0.9496 0.2724 0.1549
vn -0.9511 -0.0000 0.3090
vn -0.8650 0.2431 0.4390
vn -0.6848 0.2431 0.6870
vn -0.5878 -0.0000 0.8090
vn -0.4408 0.2724 0.8553
vn -0.3090 0.0089 0.9510
vn -0.1461 0.2724 0.9510
vn -0.0000 -0.0000 1.0000
vn 0.1502 0.2431 0.9583
vn 0.4417 0.2431 0.8636
vn 0.5878 -0.0000 0.8090
vn 0.6772 0.2724 0.6835
vn 0.8090 0.0089 0.5878
vn 0.8593 0.2724 0.4329
vn 0.9511 -0.0000 0.3090
vn 0.9578 0.2431 0.1533
vn 0.3090 -0.0089 -0.9510
vn 0.4408 -0.2724 -0.8553
vn 0.1461 -0.2724 -0.9510
vn 0.2629 -0.5257 -0.8090
vn -0.0198 -0.5038 -0.8636
vn -0.8090 -0.0089 -0.5878
vn -0.6772 -0.2724 -0.6835
vn -0.8593 -0.2724 -0.4329
vn -0.6882 -0.5257 -0.5000
vn -0.8274 -0.5038 -0.2480
vn -0.8090 -0.0089 0.5878
vn -0.8593 -0.2724 0.4329
vn -0.6772 -0.2724 0.6835
vn -0.6882 -0.5257 0.5000
vn -0.4915 -0.5038 0.7103
vn 0.3090 -0.0089 0.9510
vn 0.1461 -0.2724 0.9510
vn 0.4408 -0.2724 0.8553
vn 0.2629 -0.5257 0.8090
vn 0.5237 -0.5038 0.6870
vn 1.0000 -0.0089 -0.0000
vn 0.9496 -0.2724 0.1549
vn 0.9496 -0.2724 -0.1549
vn 0.8506 -0.5257 -0.0000
vn 0.8152 -0.5038 -0.2857
vn 0.6042 -0.6650 -0.4390
vn 0.4253 -0.8507 -0.3090
vn 0.3539 -0.7276 -0.5878
vn 0.1406 -0.8904 -0.4329
vn 0.0592 -0.7276 -0.6835
vn -0.1625 -0.8507 -0.5000
vn -0.2308 -0.6650 -0.7103
vn -0.4496 -0.7276 -0.5182
vn -0.3682 -0.8904 -0.2675
vn -0.6317 -0.7275 -0.2675
vn -0.5257 -0.8507 -0.0000
vn -0.7469 -0.6650 -0.0000
vn -0.6317 -0.7275 0.2675
vn -0.3682 -0.8904 0.2675
vn -0.4496 -0.7276 0.5182
vn -0.1625 -0.8507 0.5000
vn -0.2308 -0.6650 0.7103
vn 0.6683 -0.7276 -0.1549
vn 0.6683 -0.7275 0.1549
vn 0.4551 -0.8904 -0.0000
vn 0.4253 -0.8507 0.3090
vn 0.0592 -0.7276 0.6835
vn 0.1406 -0.8904 0.4329
vn 0.3539 -0.7276 0.5878
vt 0.000000 0.147073
vt 0.038995 0.070035
vt 0.087336 0.158993
vt 0.450241 0.210038
vt 0.434865 0.130689
vt 0.516858 0.185921
vt 0.025136 0.223212
vt 1.000000 0.147073
vt 1.025136 0.223212
vt 0.950442 0.209150
vt 0.904773 0.125962
vt 0.487900 0.272437
vt 0.229012 0.354684
vt 0.262737 0.297867
vt 0.268017 0.391735
vt 0.058885 0.488666
vt 0.094778 0.450859
vt 0.088272 0.544288
vt 0.882597 0.457085
vt 0.923303 0.460677
vt 0.893970 0.534644
vt 0.709138 0.294886
vt 0.756620 0.316999
vt 0.714545 0.375153
vt 0.426696 0.283953
vt 0.224467 0.435037
vt 0.041241 0.561452
vt 0.849380 0.503360
vt 0.666987 0.334793
vt 0.382597 0.542915
vt 0.423303 0.539323
vt 0.397006 0.618786
vt 0.209138 0.705114
vt 0.256620 0.683001
vt 0.238818 0.773516
vt 0.950241 0.789962
vt 1.016858 0.814079
vt 0.934865 0.869311
vt 0.729012 0.645316
vt 0.762737 0.702133
vt 0.703665 0.713962
vt 0.558885 0.511334
vt 0.594778 0.549141
vt 0.551376 0.590777
vt 0.525136 0.776788
vt 0.587336 0.841007
vt 0.500000 0.852927
vt 0.540832 0.684259
vt 0.591115 0.747019
vt 0.593327 0.643195
vt 0.660111 0.787473
vt 0.647211 0.689223
vt 0.638895 0.590347
vt 0.686141 0.624537
vt 0.538996 0.929965
vt 0.690081 0.883350
vt 0.742038 0.791592
vt 0.850285 0.956201
vt 0.820679 0.857264
vt 0.814828 0.757473
vt 0.884084 0.789570
vt 0.404773 0.874038
vt 0.278349 0.941228
vt 1.064478 0.899466
vt 0.298416 0.841947
vt 1.046904 0.941228
vt 0.064478 0.899466
vt 0.189407 0.850710
vt 0.016858 0.814079
vt 0.101766 0.804630
vt 0.168820 0.759488
vt 0.450442 0.790850
vt 0.374008 0.784981
vt 0.303490 0.742129
vt 0.418122 0.706890
vt 0.358510 0.683590
vt 0.306169 0.642224
vt 0.349341 0.590964
vt 0.481098 0.707133
vt 0.447612 0.620878
vt 0.502944 0.610478
vt 0.471159 0.531862
vt 0.518752 0.521575
vt 0.588272 0.455712
vt 0.624992 0.392222
vt 0.632005 0.491276
vt 0.673638 0.428078
vt 0.680023 0.531187
vt 0.719650 0.470043
vt 0.724467 0.564962
vt 0.768017 0.608265
vt 0.809924 0.557645
vt 0.811946 0.657574
vt 0.857505 0.596087
vt 0.868515 0.698116
vt 0.908334 0.625935
vt 0.926696 0.716047
vt 0.987900 0.727562
vt 1.018078 0.646254
vt 1.050612 0.730684
vt 0.072952 0.633695
vt 0.018078 0.646254
vt 0.050612 0.730684
vt 0.116191 0.706589
vt 0.124992 0.607778
vt 0.166987 0.665207
vt 0.214545 0.624847
vt 0.219650 0.529957
vt 0.260718 0.589198
vt 0.264507 0.485580
vt 0.308128 0.542293
vt 0.309923 0.442355
vt 0.349380 0.496640
vt 0.393970 0.465356
vt 0.408334 0.374065
vt 0.440946 0.452048
vt 0.462375 0.356478
vt 0.493385 0.442192
vt 0.518078 0.353746
vt 0.541241 0.438548
vt 0.764507 0.514419
vt 0.760718 0.410802
vt 0.808128 0.457707
vt 0.806169 0.357776
vt 0.849341 0.409035
vt 0.962375 0.643521
vt 0.940945 0.547952
vt 0.993385 0.557808
vt 1.041241 0.561452
vt 0.971159 0.468138
vt 1.018752 0.478425
vt 0.018752 0.478425
vt 0.173638 0.571922
vt 0.132005 0.508724
vt 0.180024 0.468813
vt 0.138895 0.409653
vt 0.186141 0.375463
vt 0.357505 0.403913
vt 0.311946 0.342425
vt 0.368515 0.301884
vt 0.314828 0.242527
vt 0.384084 0.210430
vt 0.572952 0.366305
vt 0.550612 0.269316
vt 0.616191 0.293412
vt 0.601766 0.195370
vt 0.668820 0.240512
vt 0.738818 0.226484
vt 0.798416 0.158053
vt 0.803490 0.257871
vt 0.874007 0.215020
vt 0.858510 0.316411
vt 0.918122 0.293110
vt 0.897006 0.381214
vt 0.947613 0.379122
vt 0.981098 0.292867
vt 1.002945 0.389522
vt 1.040832 0.315741
vt 0.040832 0.315741
vt 0.051376 0.409223
vt 0.002945 0.389522
vt 0.093327 0.356806
vt 0.091115 0.252982
vt 0.147211 0.310778
vt 0.160111 0.212527
vt 0.203665 0.286038
vt 0.689407 0.149290
vt 0.564478 0.100534
vt 0.778348 0.058772
vt 0.350285 0.043799
vt 1.038996 0.070035
vt 0.242038 0.208408
vt 0.190083 0.116650
vt 0.320679 0.142736
s 1
f 1/1/1 16/2/2 15/3/3
f 2/4/4 18/5/5 24/6/6
f 1/1/1 15/3/3 30/7/7
f 1/8/1 30/9/7 36/10/8
f 1/8/1 36/10/8 25/11/9
f 2/4/4 24/6/6 45/12/10
f 3/13/11 21/14/12 51/15/13
f 4/16/14 33/17/15 57/18/16
f 5/19/17 39/20/18 63/21/19
f 6/22/20 42/23/21 69/24/22
f 2/4/4 45/12/10 52/25/23
f 3/13/11 51/15/13 58/26/24
f 4/16/14 57/18/16 64/27/25
f 5/19/17 63/21/19 70/28/26
f 6/22/20 69/24/22 46/29/27
f 7/30/28 75/31/29 90/32/30
f 8/33/31 78/34/32 96/35/33
f 9/36/34 81/37/35 99/38/36
f 10/39/37 84/40/38 102/41/39
f 11/42/40 87/43/41 91/44/42
f 93/45/43 100/46/44 12/47/45
f 92/48/46 103/49/47 93/45/43
f 91/44/42 104/50/48 92/48/46
f 93/45/43 103/49/47 100/46/44
f 103/49/47 101/51/49 100/46/44
f 92/48/46 104/50/48 103/49/47
f 104/50/48 105/52/50 103/49/47
f 103/49/47 105/52/50 101/51/49
f 105/52/50 102/41/39 101/51/49
f 91/44/42 87/43/41 104/50/48
f 87/43/41 86/53/51 104/50/48
f 104/50/48 86/53/51 105/52/50
f 86/53/51 85/54/52 105/52/50
f 105/52/50 85/54/52 102/41/39
f 85/54/52 10/39/37 102/41/39
f 100/46/44 97/55/53 12/47/45
f 101/51/49 106/56/54 100/46/44
f 102/41/39 107/57/55 101/51/49
f 100/46/44 106/56/54 97/55/53
f 106/56/54 98/58/56 97/55/53
f 101/51/49 107/57/55 106/56/54
f 107/57/55 108/59/57 106/56/54
f 106/56/54 108/59/57 98/58/56
f 108/59/57 99/38/36 98/58/56
f 102/41/39 84/40/38 107/57/55
f 84/40/38 83/60/58 107/57/55
f 107/57/55 83/60/58 108/59/57
f 83/60/58 82/61/59 108/59/57
f 108/59/57 82/61/59 99/38/36
f 82/61/59 9/36/34 99/38/36
f 97/55/53 94/62/60 12/47/45
f 98/58/56 109/63/61 97/55/53
f 99/38/36 110/64/62 98/58/56
f 97/55/53 109/63/61 94/62/60
f 109/63/61 95/65/63 94/62/60
f 98/58/56 110/64/62 109/66/61
f 110/67/62 111/68/64 109/63/61
f 109/63/61 111/68/64 95/65/63
f 111/68/64 96/35/33 95/65/63
f 99/38/36 81/37/35 110/64/62
f 81/69/35 80/70/65 110/67/62
f 110/67/62 80/70/65 111/68/64
f 80/70/65 79/71/66 111/68/64
f 111/68/64 79/71/66 96/35/33
f 79/71/66 8/33/31 96/35/33
f 94/62/60 88/72/67 12/47/45
f 95/65/63 112/73/68 94/62/60
f 96/35/33 113/74/69 95/65/63
f 94/62/60 112/73/68 88/72/67
f 112/73/68 89/75/70 88/72/67
f 95/65/63 113/74/69 112/73/68
f 113/74/69 114/76/71 112/73/68
f 112/73/68 114/76/71 89/75/70
f 114/76/71 90/32/30 89/75/70
f 96/35/33 78/34/32 113/74/69
f 78/34/32 77/77/72 113/74/69
f 113/74/69 77/77/72 114/76/71
f 77/77/72 76/78/73 114/76/71
f 114/76/71 76/78/73 90/32/30
f 76/78/73 7/30/28 90/32/30
f 88/72/67 93/45/43 12/47/45
f 89/75/70 115/79/74 88/72/67
f 90/32/30 116/80/75 89/75/70
f 88/72/67 115/79/74 93/45/43
f 115/79/74 92/48/46 93/45/43
f 89/75/70 116/80/75 115/79/74
f 116/80/75 117/81/76 115/79/74
f 115/79/74 117/81/76 92/48/46
f 117/81/76 91/44/42 92/48/46
f 90/32/30 75/31/29 116/80/75
f 75/31/29 74/82/77 116/80/75
f 116/80/75 74/82/77 117/81/76
f 74/82/77 73/83/78 117/81/76
f 117/81/76 73/83/78 91/44/42
f 73/83/78 11/42/40 91/44/42
f 48/84/79 87/43/41 11/42/40
f 47/85/80 118/86/81 48/84/79
f 46/29/27 119/87/82 47/85/80
f 48/84/79 118/86/81 87/43/41
f 118/86/81 86/53/51 87/43/41
f 47/85/80 119/87/82 118/86/81
f 119/87/82 120/88/83 118/86/81
f 118/86/81 120/88/83 86/53/51
f 120/88/83 85/54/52 86/53/51
f 46/29/27 69/24/22 119/87/82
f 69/24/22 68/89/84 119/87/82
f 119/87/82 68/89/84 120/88/83
f 68/89/84 67/90/85 120/88/83
f 120/88/83 67/90/85 85/54/52
f 67/90/85 10/39/37 85/54/52
f 72/91/86 84/40/38 10/39/37
f 71/92/87 121/93/88 72/91/86
f 70/28/26 122/94/89 71/92/87
f 72/91/86 121/93/88 84/40/38
f 121/93/88 83/60/58 84/40/38
f 71/92/87 122/94/89 121/93/88
f 122/94/89 123/95/90 121/93/88
f 121/93/88 123/95/90 83/60/58
f 123/95/90 82/61/59 83/60/58
f 70/28/26 63/21/19 122/94/89
f 63/21/19 62/96/91 122/94/89
f 122/94/89 62/96/91 123/95/90
f 62/96/91 61/97/92 123/95/90
f 123/95/90 61/97/92 82/61/59
f 61/97/92 9/36/34 82/61/59
f 66/98/93 81/37/35 9/36/34
f 65/99/94 124/100/95 66/98/93
f 64/27/25 125/101/96 65/102/94
f 66/98/93 124/100/95 81/37/35
f 124/103/95 80/70/65 81/69/35
f 65/102/94 125/101/96 124/103/95
f 125/101/96 126/104/97 124/103/95
f 124/103/95 126/104/97 80/70/65
f 126/104/97 79/71/66 80/70/65
f 64/27/25 57/18/16 125/101/96
f 57/18/16 56/105/98 125/101/96
f 125/101/96 56/105/98 126/104/97
f 56/105/98 55/106/99 126/104/97
f 126/104/97 55/106/99 79/71/66
f 55/106/99 8/33/31 79/71/66
f 60/107/100 78/34/32 8/33/31
f 59/108/101 127/109/102 60/107/100
f 58/26/24 128/110/103 59/108/101
f 60/107/100 127/109/102 78/34/32
f 127/109/102 77/77/72 78/34/32
f 59/108/101 128/110/103 127/109/102
f 128/110/103 129/111/104 127/109/102
f 127/109/102 129/111/104 77/77/72
f 129/111/104 76/78/73 77/77/72
f 58/26/24 51/15/13 128/110/103
f 51/15/13 50/112/105 128/110/103
f 128/110/103 50/112/105 129/111/104
f 50/112/105 49/113/106 129/111/104
f 129/111/104 49/113/106 76/78/73
f 49/113/106 7/30/28 76/78/73
f 54/114/107 75/31/29 7/30/28
f 53/115/108 130/116/109 54/114/107
f 52/25/23 131/117/110 53/115/108
f 54/114/107 130/116/109 75/31/29
f 130/116/109 74/82/77 75/31/29
f 53/115/108 131/117/110 130/116/109
f 131/117/110 132/118/111 130/116/109
f 130/116/109 132/118/111 74/82/77
f 132/118/111 73/83/78 74/82/77
f 52/25/23 45/12/10 131/117/110
f 45/12/10 44/119/112 131/117/110
f 131/117/110 44/119/112 132/118/111
f 44/119/112 43/120/113 132/118/111
f 132/118/111 43/120/113 73/83/78
f 43/120/113 11/42/40 73/83/78
f 67/90/85 72/91/86 10/39/37
f 68/89/84 133/121/114 67/90/85
f 69/24/22 134/122/115 68/89/84
f 67/90/85 133/121/114 72/91/86
f 133/121/114 71/92/87 72/91/86
f 68/89/84 134/122/115 133/121/114
f 134/122/115 135/123/116 133/121/114
f 133/121/114 135/123/116 71/92/87
f 135/123/116 70/28/26 71/92/87
f 69/24/22 42/23/21 134/122/115
f 42/23/21 41/124/117 134/122/115
f 134/122/115 41/124/117 135/123/116
f 41/124/117 40/125/118 135/123/116
f 135/123/116 40/125/118 70/28/26
f 40/125/118 5/19/17 70/28/26
f 61/97/92 66/98/93 9/36/34
f 62/96/91 136/126/119 61/97/92
f 63/21/19 137/127/120 62/96/91
f 61/97/92 136/126/119 66/98/93
f 136/126/119 65/99/94 66/98/93
f 62/96/91 137/127/120 136/126/119
f 137/127/120 138/128/121 136/126/119
f 136/126/119 138/128/121 65/99/94
f 138/128/121 64/129/25 65/99/94
f 63/21/19 39/20/18 137/127/120
f 39/20/18 38/130/122 137/127/120
f 137/127/120 38/130/122 138/128/121
f 38/130/122 37/131/123 138/128/121
f 138/128/121 37/131/123 64/129/25
f 37/132/123 4/16/14 64/27/25
f 55/106/99 60/107/100 8/33/31
f 56/105/98 139/133/124 55/106/99
f 57/18/16 140/134/125 56/105/98
f 55/106/99 139/133/124 60/107/100
f 139/133/124 59/108/101 60/107/100
f 56/105/98 140/134/125 139/133/124
f 140/134/125 141/135/126 139/133/124
f 139/133/124 141/135/126 59/108/101
f 141/135/126 58/26/24 59/108/101
f 57/18/16 33/17/15 140/134/125
f 33/17/15 32/136/127 140/134/125
f 140/134/125 32/136/127 141/135/126
f 32/136/127 31/137/128 141/135/126
f 141/135/126 31/137/128 58/26/24
f 31/137/128 3/13/11 58/26/24
f 49/113/106 54/114/107 7/30/28
f 50/112/105 142/138/129 49/113/106
f 51/15/13 143/139/130 50/112/105
f 49/113/106 142/138/129 54/114/107
f 142/138/129 53/115/108 54/114/107
f 50/112/105 143/139/130 142/138/129
f 143/139/130 144/140/131 142/138/129
f 142/138/129 144/140/131 53/115/108
f 144/140/131 52/25/23 53/115/108
f 51/15/13 21/14/12 143/139/130
f 21/14/12 20/141/132 143/139/130
f 143/139/130 20/141/132 144/140/131
f 20/141/132 19/142/133 144/140/131
f 144/140/131 19/142/133 52/25/23
f 19/142/133 2/4/4 52/25/23
f 43/120/113 48/84/79 11/42/40
f 44/119/112 145/143/134 43/120/113
f 45/12/10 146/144/135 44/119/112
f 43/120/113 145/143/134 48/84/79
f 145/143/134 47/85/80 48/84/79
f 44/119/112 146/144/135 145/143/134
f 146/144/135 147/145/136 145/143/134
f 145/143/134 147/145/136 47/85/80
f 147/145/136 46/29/27 47/85/80
f 45/12/10 24/6/6 146/144/135
f 24/6/6 23/146/137 146/144/135
f 146/144/135 23/146/137 147/145/136
f 23/146/137 22/147/138 147/145/136
f 147/145/136 22/147/138 46/29/27
f 22/147/138 6/22/20 46/29/27
f 27/148/139 42/23/21 6/22/20
f 26/149/140 148/150/141 27/148/139
f 25/11/9 149/151/142 26/149/140
f 27/148/139 148/150/141 42/23/21
f 148/150/141 41/124/117 42/23/21
f 26/149/140 149/151/142 148/150/141
f 149/151/142 150/152/143 148/150/141
f 148/150/141 150/152/143 41/124/117
f 150/152/143 40/125/118 41/124/117
f 25/11/9 36/10/8 149/151/142
f 36/10/8 35/153/144 149/151/142
f 149/151/142 35/153/144 150/152/143
f 35/153/144 34/154/145 150/152/143
f 150/152/143 34/154/145 40/125/118
f 34/154/145 5/19/17 40/125/118
f 34/154/145 39/20/18 5/19/17
f 35/153/144 151/155/146 34/154/145
f 36/10/8 152/156/147 35/153/144
f 34/154/145 151/155/146 39/20/18
f 151/155/146 38/130/122 39/20/18
f 35/153/144 152/156/147 151/155/146
f 152/156/147 153/157/148 151/155/146
f 151/155/146 153/157/148 38/130/122
f 153/157/148 37/131/123 38/130/122
f 36/10/8 30/9/7 152/156/147
f 30/9/7 29/158/149 152/156/147
f 152/156/147 29/158/149 153/157/148
f 29/159/149 28/160/150 153/161/148
f 153/161/148 28/160/150 37/132/123
f 28/160/150 4/16/14 37/132/123
f 28/160/150 33/17/15 4/16/14
f 29/159/149 154/162/151 28/160/150
f 30/7/7 155/163/152 29/159/149
f 28/160/150 154/162/151 33/17/15
f 154/162/151 32/136/127 33/17/15
f 29/159/149 155/163/152 154/162/151
f 155/163/152 156/164/153 154/162/151
f 154/162/151 156/164/153 32/136/127
f 156/164/153 31/137/128 32/136/127
f 30/7/7 15/3/3 155/163/152
f 15/3/3 14/165/154 155/163/152
f 155/163/152 14/165/154 156/164/153
f 14/165/154 13/166/155 156/164/153
f 156/164/153 13/166/155 31/137/128
f 13/166/155 3/13/11 31/137/128
f 22/147/138 27/148/139 6/22/20
f 23/146/137 157/167/156 22/147/138
f 24/6/6 158/168/157 23/146/137
f 22/147/138 157/167/156 27/148/139
f 157/167/156 26/149/140 27/148/139
f 23/146/137 158/168/157 157/167/156
f 158/168/157 159/169/158 157/167/156
f 157/167/156 159/169/158 26/149/140
f 159/169/158 25/11/9 26/149/140
f 24/6/6 18/5/5 158/168/157
f 18/5/5 17/170/159 158/168/157
f 158/168/157 17/170/159 159/169/158
f 17/170/159 16/171/2 159/169/158
f 159/169/158 16/171/2 25/11/9
f 16/171/2 1/8/1 25/11/9
f 13/166/155 21/14/12 3/13/11
f 14/165/154 160/172/160 13/166/155
f 15/3/3 161/173/161 14/165/154
f 13/166/155 160/172/160 21/14/12
f 160/172/160 20/141/132 21/14/12
f 14/165/154 161/173/161 160/172/160
f 161/173/161 162/174/162 160/172/160
f 160/172/160 162/174/162 20/141/132
f 162/174/162 19/142/133 20/141/132
f 15/3/3 16/2/2 161/173/161
f 16/2/2 17/170/159 161/173/161
f 161/173/161 17/170/159 162/174/162
f 17/170/159 18/5/5 162/174/162
f 162/174/162 18/5/5 19/142/133
f 18/5/5 2/4/4 19/142/133
